<svg xmlns="http://www.w3.org/2000/svg" xmlns:xlink="http://www.w3.org/1999/xlink" width="500" zoomAndPan="magnify" viewBox="0 0 375 149.999998" height="200" preserveAspectRatio="xMidYMid meet" version="1.2"><defs/><g id="fc63348800"><g style="fill:#d72020;fill-opacity:1;"><g transform="translate(11.269804, 118.124995)"><path style="stroke:none" d="M 51.921875 0 L 8.734375 0 L 8.734375 -60.8125 L 0 -60.8125 L 0 -85.78125 L 14.09375 -95.125 L 51.921875 -95.125 Z M 51.921875 0 "/></g></g><g style="fill:#ffffff;fill-opacity:1;"><g transform="translate(66.265895, 118.124995)"><path style="stroke:none" d="M 46.265625 -33.703125 L 46.265625 0 L 3.0625 0 L 3.0625 -95.125 L 73.21875 -95.125 L 70.921875 -63.875 L 46.265625 -63.875 L 46.265625 -58.359375 L 70.453125 -58.359375 L 68.921875 -33.703125 Z M 46.265625 -33.703125 "/></g></g><g style="fill:#ffffff;fill-opacity:1;"><g transform="translate(139.478358, 118.124995)"><path style="stroke:none" d="M 71.984375 0 L 3.0625 0 L 3.0625 -95.125 L 74.90625 -95.125 L 72.609375 -63.875 L 46.265625 -63.875 L 46.265625 -58.359375 L 71.984375 -58.359375 L 70.453125 -32.9375 L 46.265625 -32.9375 L 46.265625 -27.421875 L 74.28125 -27.421875 Z M 71.984375 0 "/></g></g><g style="fill:#ffffff;fill-opacity:1;"><g transform="translate(214.37562, 118.124995)"><path style="stroke:none" d="M 71.984375 0 L 3.0625 0 L 3.0625 -95.125 L 74.90625 -95.125 L 72.609375 -63.875 L 46.265625 -63.875 L 46.265625 -58.359375 L 71.984375 -58.359375 L 70.453125 -32.9375 L 46.265625 -32.9375 L 46.265625 -27.421875 L 74.28125 -27.421875 Z M 71.984375 0 "/></g></g><g style="fill:#ffffff;fill-opacity:1;"><g transform="translate(289.272871, 118.124995)"><path style="stroke:none" d="M 72.453125 -64.171875 L 58.671875 -64.171875 L 58.671875 0 L 15.3125 0 L 15.3125 -64.171875 L 0 -64.171875 L 1.53125 -95.125 L 74.4375 -95.125 Z M 72.453125 -64.171875 "/></g></g></g></svg>